<svg width="162" height="159" viewBox="0 0 162 159" fill="none" xmlns="http://www.w3.org/2000/svg">
<g clip-path="url(#clip0_0_265)">
<path d="M143.093 0H18.0577C13.2357 0.0433271 8.63214 1.52915 5.25207 4.13311C1.87199 6.73708 -0.0101012 10.2476 0.0166864 13.8985V26.1923H8.19441V13.9364C8.19409 11.9453 9.22843 10.0341 11.074 8.61561C12.9195 7.19714 15.428 6.38524 18.0577 6.35538H143.093C145.725 6.38196 148.238 7.19241 150.087 8.61124C151.937 10.0301 152.973 11.9432 152.973 13.9364V118.225H8.1777V98.3003H0V124.543H161.117V13.949C161.162 10.2916 159.29 6.76997 155.911 4.15543C152.533 1.54089 147.924 0.0466503 143.093 0Z" fill="#AAAAAA"/>
<path d="M8.19434 36.415H0.0166016V88.13H8.19434V36.415Z" fill="#AAAAAA"/>
<path d="M34.0289 152.683H28.0875V129.233H19.9099V159.001H39.7032L54.106 129.233L45.3775 129.258L34.0289 152.683Z" fill="#AAAAAA"/>
<path d="M133.046 152.683H127.105L115.756 129.233H107.028L121.431 159.001H141.224V129.233H133.063L133.046 152.683Z" fill="#AAAAAA"/>
<path d="M56.6265 62.2778C56.7251 65.8469 58.213 69.3146 60.9037 72.2456C63.5945 75.1772 67.368 77.442 71.7524 78.7562C76.1361 80.0709 80.9346 80.376 85.547 79.6342C90.1595 78.8923 94.3793 77.1364 97.6789 74.5864C100.978 72.036 103.21 68.8053 104.094 65.2988C104.979 61.7929 104.476 58.1667 102.65 54.8759C100.823 51.5846 97.754 48.7751 93.8272 46.799C89.9003 44.823 85.2904 43.7685 80.5756 43.7677C74.1617 43.8277 68.04 45.8092 63.5517 49.2784C59.0631 52.7478 56.573 57.4219 56.6265 62.2778ZM78.1222 47.6846V59.7507H83.0289V47.6846C87.826 48.1564 92.2065 49.9926 95.28 52.8208C98.3534 55.649 99.8905 59.2568 99.5782 62.9114C99.2658 66.5664 97.1281 69.9943 93.5984 72.4991C90.0694 75.0038 85.4129 76.3975 80.5756 76.3975C75.7376 76.3975 71.0817 75.0038 67.5521 72.4991C64.023 69.9943 61.8851 66.5664 61.5728 62.9114C61.2606 59.2568 62.7973 55.649 65.8711 52.8208C68.9446 49.9926 73.3251 48.1564 78.1222 47.6846Z" fill="#AAAAAA"/>
<path d="M83.0289 31.1454H78.1223V38.3726H83.0289V31.1454Z" fill="#AAAAAA"/>
<path d="M69.1099 32.3726L64.5034 33.6613L67.6907 40.4589L72.2974 39.1575L69.1099 32.3726Z" fill="#AAAAAA"/>
<path d="M52.8042 39.6368L58.829 45.1835L62.5841 42.745L56.576 37.2108L52.8042 39.6368Z" fill="#AAAAAA"/>
<path d="M44.4765 48.3425L52.5707 51.9563L55.024 48.6837L46.9297 45.0701L44.4765 48.3425Z" fill="#AAAAAA"/>
<path d="M40.4882 58.7283L49.7005 59.9918L50.5517 56.2519L41.3393 55.0007L40.4882 58.7283Z" fill="#AAAAAA"/>
<path d="M40.4882 65.8165L41.3393 69.5436L50.5517 68.2929L49.7005 64.553L40.4882 65.8165Z" fill="#AAAAAA"/>
<path d="M55.024 75.8613L52.5707 72.5889L44.4765 76.2026L46.9131 79.4751L55.024 75.8613Z" fill="#AAAAAA"/>
<path d="M62.5674 81.7995L58.8124 79.3738L52.8042 84.908L56.5593 87.3466L62.5674 81.7995Z" fill="#AAAAAA"/>
<path d="M69.1098 92.1739L72.2973 85.3891L67.6914 84.0873L64.4868 90.885L69.1098 92.1739Z" fill="#AAAAAA"/>
<path d="M83.0289 86.1835H78.1223V93.4105H83.0289V86.1835Z" fill="#AAAAAA"/>
<path d="M92.0406 92.1739L96.6473 90.885L93.4591 84.0873L88.8531 85.3891L92.0406 92.1739Z" fill="#AAAAAA"/>
<path d="M98.566 81.8124L104.591 87.3466L108.346 84.908L102.321 79.3738L98.566 81.8124Z" fill="#AAAAAA"/>
<path d="M116.674 76.2026L108.58 72.5889L106.127 75.8742L114.221 79.4875L116.674 76.2026Z" fill="#AAAAAA"/>
<path d="M120.663 65.8168L111.45 64.5662L110.599 68.2932L119.811 69.5444L120.663 65.8168Z" fill="#AAAAAA"/>
<path d="M119.811 55.0007L110.599 56.2643L111.45 59.9918L120.663 58.7407L119.811 55.0007Z" fill="#AAAAAA"/>
<path d="M106.127 48.6837L108.58 51.9687L116.691 48.3552L114.238 45.0701L106.127 48.6837Z" fill="#AAAAAA"/>
<path d="M98.5828 42.745L102.338 45.1835L108.346 39.6494L104.591 37.2108L98.5828 42.745Z" fill="#AAAAAA"/>
<path d="M92.0575 32.3726L88.8531 39.1702L93.4591 40.4589L96.6635 33.6739L92.0575 32.3726Z" fill="#AAAAAA"/>
</g>
<defs>
<clipPath id="clip0_0_265">
<rect width="162" height="159" fill="white"/>
</clipPath>
</defs>
</svg>
