<svg width="162" height="159" viewBox="0 0 162 159" fill="none" xmlns="http://www.w3.org/2000/svg">
<g clip-path="url(#clip0_0_292)">
<path d="M161.998 53.6914L162 27.4567L130.45 27.3232L130.433 33.0807L149.409 33.1613L115.602 53.9077L115.604 24.9921C115.604 24.9895 115.604 24.9895 115.604 24.987C115.602 23.97 115.142 23.0284 114.389 22.5123L82.1595 0.398711C81.3807 -0.134996 80.416 -0.132477 79.6412 0.403748L47.6154 22.5148C46.865 23.0335 46.4041 23.9725 46.4041 24.9895L46.4021 53.9077L13.3096 33.1487L31.5757 33.0757L31.5584 27.3182L4.19062 27.429L3.65625 27.0941L3.49832 27.434L0.00865238 27.4491L0.00649013 53.6866H4.95432L4.95647 34.4527L46.3996 60.446L46.3976 96.3781L44.2276 97.7098L46.3976 102.493V102.495L44.2276 97.7098L4.94784 121.815L4.94999 103.099H0.00216227L0 129.337L31.5497 129.47L31.5671 123.713L12.5935 123.632L46.3956 102.888L46.3932 131.801C46.3932 132.821 46.8561 133.762 47.6114 134.281L79.8405 156.395C80.2277 156.662 80.6626 156.795 81.0972 156.795C81.5342 156.795 81.9716 156.659 82.3588 156.392L114.382 134.284C115.133 133.765 115.594 132.826 115.594 131.809L115.596 103.86L149.586 125.183L130.422 125.261L130.44 131.018L161.989 130.89L161.991 104.653H157.044L157.041 123.32L117.783 98.6942L115.594 97.3196L115.596 60.4205L157.048 34.9814L157.046 53.6962H161.998V53.6914ZM80.9048 6.22167L108.27 24.9996L81.1017 43.7549L53.7338 24.9795L80.9048 6.22167ZM51.3455 99.8496L65.4492 91.1942L60.2891 87.8538L51.3475 93.3417L51.352 30.0245L78.6352 48.7422L78.6287 148.875L51.3455 130.155V99.8496ZM110.652 100.751L110.65 130.165L83.5722 148.86L83.5786 48.7393L110.657 30.0471L110.652 94.2128L100.348 87.7478L95.5646 91.2877L110.652 100.751Z" fill="#AAAAAA"/>
</g>
<defs>
<clipPath id="clip0_0_292">
<rect width="162" height="159" fill="white"/>
</clipPath>
</defs>
</svg>
