<svg width="162" height="159" viewBox="0 0 162 159" fill="none" xmlns="http://www.w3.org/2000/svg">
<g clip-path="url(#clip0_0_289)">
<path d="M133.191 33.7111L145.334 20.4866L139.85 16.4351L127.664 29.6596C114.905 20.9935 99.4127 15.9969 83.3004 15.3521V6.37019H96.7486V0H62.8018V6.37019H76.25V15.3521C33.8744 17.0466 1.6787e-05 48.439 1.6787e-05 86.8383C-0.009194 99.5459 3.77213 112.034 10.9675 123.06L17.0895 119.836C10.537 109.791 7.09571 98.4145 7.10856 86.8383C7.10856 50.885 39.7354 21.6459 79.8191 21.6459C119.902 21.6459 152.529 50.9486 152.529 86.8513C152.529 122.753 119.873 152.095 79.79 152.095C64.8201 152.076 50.2317 147.947 38.067 140.284H53.4592V133.914H25.6198V159H32.7284V144.629C46.3107 153.569 62.8158 158.422 79.79 158.465C123.79 158.465 159.579 126.359 159.579 86.9019C159.618 76.9143 157.292 67.0284 152.749 57.8715C148.207 48.7149 141.546 40.4874 133.191 33.7111Z" fill="#AAAAAA"/>
<path d="M83.3004 86.8388H83.344V34.0553H76.2355V83.6539H31.3938V90.0238H83.3004V86.8388Z" fill="#AAAAAA"/>
</g>
<defs>
<clipPath id="clip0_0_289">
<rect width="162" height="159" fill="white"/>
</clipPath>
</defs>
</svg>
